<mxfile host="app.diagrams.net" modified="2024-06-02T08:04:43.730Z" agent="Mozilla/5.0 (Windows NT 10.0; Win64; x64) AppleWebKit/537.36 (KHTML, like Gecko) Chrome/124.0.0.0 Safari/537.36 OPR/110.0.0.0" version="24.4.13" etag="6xC8X9WDevY9Gpb5H7id" type="github">
  <diagram name="Page-1" id="CgpVX6LTf-RObonOUiGw">
    <mxGraphModel>
      <root>
        <mxCell id="0" />
        <mxCell id="1" parent="0" />
      </root>
    </mxGraphModel>
  </diagram>
</mxfile>
